<svg width="96" height="96" viewBox="0 0 96 96" fill="none" xmlns="http://www.w3.org/2000/svg">
<path d="M96 48.9337C96 74.754 73.5 96 48 96C22.5 96 0 75.3979 0 46.9364C0 21.1162 22.4903 0 49 0C75.5097 0 96 23.1135 96 48.9337Z" fill="white"/>
<path fill-rule="evenodd" clip-rule="evenodd" d="M48 0C21.48 0 0 21.451 0 47.9351C0 69.1464 13.74 87.0621 32.82 93.4135C35.22 93.8329 36.12 92.3949 36.12 91.1366C36.12 89.9981 36.06 86.2232 36.06 82.2087C24 84.4257 20.88 79.2727 19.92 76.5763C19.38 75.1982 17.04 70.9439 15 69.8055C13.32 68.9067 10.92 66.6897 14.94 66.6298C18.72 66.5699 21.42 70.1051 22.32 71.5431C26.64 78.7933 33.54 76.7561 36.3 75.4978C36.72 72.382 37.98 70.2848 39.36 69.0864C28.68 67.8881 17.52 63.7537 17.52 45.4185C17.52 40.2056 19.38 35.8914 22.44 32.5359C21.96 31.3376 20.28 26.4242 22.92 19.8331C22.92 19.8331 26.94 18.5748 36.12 24.7465C39.96 23.668 44.04 23.1287 48.12 23.1287C52.2 23.1287 56.28 23.668 60.12 24.7465C69.3 18.5149 73.32 19.8331 73.32 19.8331C75.96 26.4242 74.28 31.3376 73.8 32.5359C76.86 35.8914 78.72 40.1456 78.72 45.4185C78.72 63.8136 67.5 67.8881 56.82 69.0864C58.56 70.5844 60.06 73.4605 60.06 77.9544C60.06 84.3658 60 89.5188 60 91.1366C60 92.3949 60.9 93.8929 63.3 93.4135C72.8288 90.2011 81.1092 84.0853 86.9752 75.9268C92.8412 67.7686 95.9976 57.9787 96 47.9351C96 21.451 74.52 0 48 0Z" fill="#2886F0"/>
</svg>
