<svg width="100" height="100" viewBox="0 0 100 100" fill="none" xmlns="http://www.w3.org/2000/svg">
<circle cx="50" cy="50" r="50" fill="#2886F0"/>
<rect x="25" y="25" width="50" height="50" rx="10" fill="white"/>
<circle cx="36" cy="36" r="4" fill="#2886F0"/>
<path d="M32 43H40V66.5H32V43Z" fill="#2886F0"/>
<path d="M44 43H52V66.5H44V43Z" fill="#2886F0"/>
<path d="M52 46.5C52 46.5 54 42.5 59.5 42.5C65 42.5 68 48.5 68 52.5C68 56.5 68 66.5 68 66.5H60V52.5C60 52.5 59.5 48.5 56 49C52.5 49.5 52 52.5 52 52.5V46.5Z" fill="#2886F0"/>
</svg>
