<svg width="96" height="96" viewBox="0 0 96 96" fill="none" xmlns="http://www.w3.org/2000/svg">
<g clip-path="url(#clip0_39_2)">
<path d="M86 51.8867C86 75.5327 67.7187 94.9895 47 94.9895C26.2812 94.9895 8 76.1223 8 50.0576C8 26.4117 26.2734 7.07373 47.8125 7.07373C69.3516 7.07373 86 28.2408 86 51.8867Z" fill="white"/>
<path fill-rule="evenodd" clip-rule="evenodd" d="M48 0C21.48 0 0 21.5597 0 48.178C0 69.4968 13.74 87.5033 32.82 93.8869C32.82 93.8869 40 96 47.5 96C55 96 63.3 93.8869 63.3 93.8869L60.06 90.9474H36.06C36.06 90.9474 36.06 86.6602 36.06 82.6253C24 84.8536 20.88 79.6744 19.92 76.9644C19.38 75.5793 17.04 71.3034 15 70.1593C13.32 69.2559 10.92 67.0277 14.94 66.9675C18.72 66.9073 21.42 70.4604 22.32 71.9057C26.64 79.1926 33.54 77.1451 36.3 75.8804C36.72 72.7488 37.98 70.641 39.36 69.4365C28.68 68.2322 17.52 64.0768 17.52 45.6487C17.52 40.4094 19.38 36.0733 22.44 32.7008C21.96 31.4964 20.28 26.5581 22.92 19.9336C22.92 19.9336 26.94 18.6689 36.12 24.8719C39.96 23.7879 44.04 23.2459 48.12 23.2459C52.2 23.2459 56.28 23.7879 60.12 24.8719C69.3 18.6087 73.32 19.9336 73.32 19.9336C75.96 26.5581 74.28 31.4964 73.8 32.7008C76.86 36.0733 78.72 40.349 78.72 45.6487C78.72 64.137 67.5 68.2322 56.82 69.4365C58.56 70.9421 60.06 73.8328 60.06 78.3494C60.06 84.7933 60.06 89.3214 60.06 90.9474L63.3 93.8869C72.8288 90.6582 81.1092 84.5114 86.9752 76.3116C92.8412 68.112 95.9976 58.2725 96 48.178C96 21.5597 74.52 0 48 0Z" fill="#2886F0"/>
</g>
<defs>
<clipPath id="clip0_39_2">
<rect width="96" height="96" fill="white"/>
</clipPath>
</defs>
</svg>
